.
 
http://www.scenetime.com    -   SceneTime [ We been having it ] !!!


How come you press harder on a remote control when you know the battery is dead? so you better seed to get speed ;)

        Seed back for speed


...................................NFO:.................................................SCR0N

   General
      Complete name :The.Dragon.Pearl.2011.R5.AVI
      Format : AVI
      Format/Info : Audio Video Interleave
      Format profile : OpenDML
      File size : 1.46 GiB
      Duration : 1h 30mn
      Overall bit rate : 2 311 Kbps
   Video #0
      ID : 0
      Format : MPEG-4 Visual
      Format profile : Simple@L3
      Format settings, BVOP : No
      Format settings, QPel : No
      Format settings, GMC : No warppoints
      Format settings, Matrix : Default (H.263)
      Codec ID : XVID
      Codec ID/Hint : XviD
      Duration : 1h 30mn
      Bit rate : 1 857 Kbps
      Width : 720 pixels
      Height : 400 pixels
      Display aspect ratio : 16:9
      Frame rate : 25.000 fps
      Color space : YUV
      Chroma subsampling : 4:2:0
      Bit depth : 8 bits
      Scan type : Progressive
      Compression mode : Lossy
      Bits/(Pixel*Frame) : 0.258
      Stream size : 1.18 GiB (80%)
      Writing library : ZJMedia MPEG Encoder
   Audio #1
      ID : 1
      Format : AC-3
      Format/Info : Audio Coding 3
      Mode extension : CM (complete main)
      Codec ID : 2000
      Duration : 1h 30mn
      Bit rate mode : Constant
      Bit rate : 448 Kbps
      Channel(s) : 6 channels
      Channel positions : Front: L C R, Side: L R, LFE
      Sampling rate : 48.0 KHz
      Bit depth : 16 bits
      Compression mode : Lossy
      Stream size : 291 MiB (19%)
      Alignment : Split accross interleaves
      Interleave, duration : 1000 ms (25.00 video frames)